<svg xmlns="http://www.w3.org/2000/svg" viewBox="0 0 47 44">
    <path fill="#fff" d="M33.4 20.5v-5c0-.6-.4-1-1-1h-18c-.6 0-1 .4-1 1v5c0 .6.4 1 1 1h1V25c0 4.2 3.6 7.5 8 7.5s8-3.4 8-7.5v-3.5h1c.6 0 1-.4 1-1zm-8 9.7c-.6.2-1.3.3-2 .3s-1.4-.1-2-.3V27c0-.8.9-1.5 2-1.5s2 .7 2 1.5v3.2zm4-5.2c0 1.6-.8 3.1-2 4.1V27c0-1.9-1.8-3.5-4-3.5s-4 1.6-4 3.5v2.1c-1.2-1-2-2.5-2-4.1v-3.5h12V25zm2-5.5h-16v-3h16v3z" opacity=".6"/>
    <path fill="#fff" d="M24.4 10.7V6.8a3.5 3.5 0 0 0 2.4-4A3.6 3.6 0 0 0 24.2.1a3.5 3.5 0 0 0-4.3 3.4c0 1.6 1.1 2.9 2.5 3.3v3.9c0 .6.4 1 1 1s1-.4 1-1zm-2.5-7.2c0-.8.7-1.5 1.5-1.5s1.5.7 1.5 1.5S24.3 5 23.4 5s-1.5-.7-1.5-1.5zM10.7 18L7 16.8c0-1.8-1.3-3.4-3.2-3.6a3.5 3.5 0 0 0-1.3 6.9c1.5.5 3.1-.1 3.9-1.3l3.7 1.2c.5.2 1.1-.1 1.3-.6.1-.7-.2-1.3-.7-1.4zm-7.7.1a1.6 1.6 0 0 1-1-1.9c.3-.8 1.1-1.2 1.9-1 .8.2 1.2 1.1 1 1.9-.2.8-1.1 1.3-1.9 1zM14.9 33.9L12.6 37c-1.7-.6-3.8.2-4.5 2.2a3.5 3.5 0 0 0 6.2 3.1c.9-1.3.8-3-.1-4.2l2.3-3.1a1 1 0 0 0-.2-1.4 1 1 0 0 0-1.4.3zm-2.2 7.3c-.5.7-1.4.8-2.1.3-.7-.5-.8-1.4-.3-2.1.5-.7 1.4-.8 2.1-.3.6.5.8 1.4.3 2.1zM30.3 35.1l2.3 3.1c-1 1.4-1 3.4.4 4.7a3.5 3.5 0 0 0 5.2-4.6 3.5 3.5 0 0 0-4-1.2L31.9 34c-.3-.4-.9-.5-1.4-.2-.4.2-.5.8-.2 1.3zm6.3 4.3c.5.7.3 1.6-.3 2.1-.7.5-1.6.3-2.1-.3-.5-.7-.3-1.6.3-2.1s1.6-.4 2.1.3zM36.8 19.9l3.7-1.2c1 1.4 2.9 2 4.6 1.1 1.2-.6 1.9-2 1.8-3.3a3.6 3.6 0 0 0-4.6-3.1 3.5 3.5 0 0 0-2.4 3.4L36.2 18a1 1 0 0 0-.6 1.3c.1.5.7.7 1.2.6zm6.1-4.6c.8-.3 1.6.2 1.9 1 .3.8-.2 1.6-1 1.9-.8.3-1.6-.2-1.9-1-.2-.8.2-1.7 1-1.9z"/>
</svg>