<svg width="18" height="18" viewBox="0 0 18 18" fill="none" xmlns="http://www.w3.org/2000/svg">
    <path fill-rule="evenodd" clip-rule="evenodd" d="M9 2C5.13401 2 2 5.13401 2 9C2 12.866 5.13401 16 9 16C12.866 16 16 12.866 16 9C16 5.13401 12.866 2 9 2ZM0 9C0 4.02944 4.02944 0 9 0C13.9706 0 18 4.02944 18 9C18 13.9706 13.9706 18 9 18C4.02944 18 0 13.9706 0 9Z" fill="#FFFFFF"/>
    <path opacity="0.6" fill-rule="evenodd" clip-rule="evenodd" d="M13.498 5.89101L14.249 3.58961L16.1503 4.21005L13.6084 11.9999H16.0001V13.9999H7.14252L7.75197 15.8936L5.84814 16.5063L3.45104 9.05817L1.58702 10.4096L0.413086 8.79037L7.28331 3.80946L5.50786 2.50596L6.69147 0.893799L13.498 5.89101ZM11.5046 11.9999H6.49884L5.15458 7.82311L8.97626 5.05239L12.8449 7.89262L11.5046 11.9999Z" fill="#FFFFFF"/>
</svg>
