<svg xmlns="http://www.w3.org/2000/svg" viewBox="0 0 24 24">
    <path d="M20.43 0H3.32a.9.9 0 0 0-.95.95V5.7a.9.9 0 0 0 .95.95h.95v4.27a7.35 7.35 0 0 0 7.6 7.13 7.41 7.41 0 0 0 7.6-7.13V6.66h.95a.9.9 0 0 0 .95-.95V.95a.9.9 0 0 0-.95-.95zM9.98 15.86v-3.04c0-.76.85-1.42 1.9-1.42s1.9.66 1.9 1.42v3.04a6.13 6.13 0 0 1-1.9.29 6.13 6.13 0 0 1-1.9-.29zm7.6-4.94a5.15 5.15 0 0 1-1.9 3.9v-2a3.61 3.61 0 0 0-3.8-3.32 3.61 3.61 0 0 0-3.8 3.32v2a5.15 5.15 0 0 1-1.9-3.9V6.65h11.4zm1.9-6.17H4.28V1.9h15.2zM19.95 19h-2.37a.47.47 0 0 0 0 .95h1.33a9.82 9.82 0 0 1-7.03 2.85 9.67 9.67 0 0 1-7.03-2.85h1.33a.47.47 0 0 0 0-.95H3.8a.45.45 0 0 0-.47.47v2.38a.45.45 0 0 0 .47.47.45.45 0 0 0 .48-.47V20.8a10.7 10.7 0 0 0 7.6 2.95 10.7 10.7 0 0 0 7.6-2.95v1.05a.47.47 0 0 0 .95 0v-2.38a.45.45 0 0 0-.48-.47z"/>
</svg>