<svg width="8" height="8" viewBox="0 0 8 8" fill="none" xmlns="http://www.w3.org/2000/svg">
    <path fill-rule="evenodd" clip-rule="evenodd" d="M5.57095 7.33658C5.96153 7.72716 6.60035 7.73281 6.99778 7.3492C7.39521 6.96558 7.40076 6.33797 7.01018 5.94738L5.06537 4.00257L7.01014 2.0578C7.40072 1.66722 7.39517 1.0396 6.99774 0.655986C6.60031 0.272369 5.9615 0.278018 5.57091 0.668603L3.65115 2.58836L1.72861 0.665816C1.33803 0.27523 0.699212 0.269581 0.30178 0.653198C-0.0956513 1.03681 -0.101201 1.66443 0.289384 2.05502L2.23694 4.00257L0.289347 5.95017C-0.101239 6.34075 -0.0956888 6.96837 0.301743 7.35198C0.699175 7.7356 1.33799 7.72995 1.72857 7.33937L3.65115 5.41679L5.57095 7.33658Z" fill="#46495D"/>
</svg>
