<svg xmlns="http://www.w3.org/2000/svg" viewBox="0 0 34 25">
    <path fill="#fff" d="M33.2 2.3L24.1 0H9.9L.8 2.3a1 1 0 0 0-.8 1V24c0 .3.1.6.4.8l.6.2h.2l8.4-2.1.5.1h13.8l.5-.1 8.4 2.1h.2l.6-.2c.2-.2.4-.5.4-.8V3.3a1 1 0 0 0-.8-1zM2 4.1l7.1-1.8v18.6L2 22.7V4.1zM22.9 21H11.1V2h11.8v19zm9.1 1.7l-7.1-1.8V2.3L32 4.1v18.6z"/>
    <path fill="#fff" d="M32.8 11l.4-2-7.6-1.7c-.1-.2-.4-.3-.7-.3h-15L.8 9l.4 2 9-2h13.6l9 2zM32.8 18l.4-2-7.6-1.7c-.2-.2-.4-.4-.8-.4H9.9l-9.1 2 .4 2 9-2h13.6l9 2.1z" opacity=".6"/>
</svg>