<svg xmlns="http://www.w3.org/2000/svg" viewBox="0 0 24 24">
    <path d="M11.68 21.62a2.45 2.45 0 0 1-1.1-.28l-.28-.18-5.06-4.6h-3.4A1.84 1.84 0 0 1 0 14.72V9.2a1.84 1.84 0 0 1 1.84-1.84h3.4l5.34-4.78a2.16 2.16 0 0 1 2.12 0 2.2 2.2 0 0 1 1.1 1.84v15a2.02 2.02 0 0 1-1.1 1.83 1.93 1.93 0 0 1-1.02.37zm-.18-1.93h.28c.09 0 .18-.1.18-.28v-15c0-.09-.1-.18-.18-.27h-.28l-4.97 4.6a2.2 2.2 0 0 1-1.29.46h-3.4v5.52h3.4a1.75 1.75 0 0 1 1.2.46zm5.98-3.22a.86.86 0 0 1-.92-.92.92.92 0 0 1 .55-.83 4.42 4.42 0 0 0-.09-6.07.92.92 0 0 1 1.29-1.29 6.33 6.33 0 0 1 0 8.83 1.48 1.48 0 0 1-.83.28zm3.13 1.47a.86.86 0 0 1-.92-.92.92.92 0 0 1 .64-.83 6.51 6.51 0 0 0 1.75-4.41 6.33 6.33 0 0 0-1.93-4.6.92.92 0 0 1 1.29-1.3 8.36 8.36 0 0 1 2.48 5.9 8 8 0 0 1-2.48 5.88 1.75 1.75 0 0 1-.83.28z"/>
</svg>