<svg xmlns="http://www.w3.org/2000/svg" viewBox="0 0 24 24">
    <path d="M15.85 10.2a1.6 1.6 0 0 1-2.26-2.27l4.33-4.33h-2.54a1.6 1.6 0 0 1 0-3.2h6.4c.89 0 1.6.72 1.6 1.6v6.4a1.6 1.6 0 0 1-3.2 0V5.86l-4.33 4.33zm-8 0a1.6 1.6 0 0 0 2.26-2.27L5.78 3.6h2.54a1.6 1.6 0 0 0 0-3.2h-6.4C1.04.4.32 1.12.32 2v6.4a1.6 1.6 0 0 0 3.2 0V5.86l4.33 4.33zm8 3.47a1.6 1.6 0 0 0-2.26 2.26l4.33 4.33h-2.54a1.6 1.6 0 1 0 0 3.2h6.4c.89 0 1.6-.71 1.6-1.6v-6.4a1.6 1.6 0 0 0-3.2 0V18l-4.33-4.33zm-8 0a1.6 1.6 0 0 1 2.26 2.26l-4.33 4.33h2.54a1.6 1.6 0 1 1 0 3.2h-6.4a1.6 1.6 0 0 1-1.6-1.6v-6.4a1.6 1.6 0 1 1 3.2 0V18l4.33-4.33z"/>
</svg>