<svg viewBox="0 0 18 18" fill="none" xmlns="http://www.w3.org/2000/svg">
    <g clip-path="url(#clip0)" transform="scale(0.65) translate(0, 6.5)">
        <path d="M2.99996 12.9999C2.59996 12.9999 2.19996 12.6999 2.09996 12.3999C2.09996 12.1999 1.99996 12.0999 2.19996 11.8999C2.49996 11.3999 3.49996 10.7999 4.69996 10.3999C4.39996 9.7999 4.29996 9.0999 4.19996 8.3999C2.59996 8.9999 1.19996 9.7999 0.599956 10.7999C-4.39882e-05 11.4999 -0.100044 12.1999 0.099956 12.9999C0.499956 14.1999 1.59996 14.9999 2.89996 14.9999H11.4C9.39996 14.9999 7.69996 14.1999 6.29996 12.9999H2.99996Z" fill="#FFFFFF"/>
        <path fill-rule="evenodd" clip-rule="evenodd" d="M4 7.5C4 11.6 7.4 15 11.5 15C15.6 15 19 11.6 19 7.5C19 3.4 15.6 0 11.5 0C7.4 0 4 3.4 4 7.5ZM6 7.5C6 4.5 8.5 2 11.5 2C14.5 2 17 4.5 17 7.5C17 10.5 14.5 13 11.5 13C8.5 13 6 10.5 6 7.5Z" fill="#FFFFFF"/>
        <path d="M19.5 8.2001C21.7 8.2001 23.5 9.7001 24.6 12.4001C24.8 13.0001 24.7 13.7001 24.4 14.2001C24.1 14.7001 23.5 15.0001 22.9 15.0001L11.5 15C13.5 15 15.3 14.2001 16.6 13.0001H22.7C22.2 11.9001 21.2 10.2001 19.5 10.2001H19.4L18.6 10.1001C18.8 9.4001 18.9 8.8001 19 8.1001L19.5 8.2001Z" fill="#FFFFFF"/>
        <g opacity="0.6">
            <path d="M22 10C21.8 10 21.7 10 21.6 9.90004C21.1 9.70004 20.9 9.10004 21.2 8.60004L23.2 4.60004C23.4 4.10004 24 3.90004 24.5 4.20004C25 4.40004 25.2 5.00004 24.9 5.50004L22.9 9.50004C22.7 9.80004 22.4 10 22 10Z" fill="#FFFFFF"/>
            <path d="M23 12C22.7 12 22.5 11.9 22.3 11.7C21.9 11.3 21.9 10.7 22.3 10.3L26.3 6.3C26.7 5.9 27.3 5.9 27.7 6.3C28.1 6.7 28.1 7.3 27.7 7.7L23.7 11.7C23.5 11.9 23.3 12 23 12Z" fill="#FFFFFF"/>
            <path fill-rule="evenodd" clip-rule="evenodd" d="M9 7.5C9 8.9 10.1 10 11.5 10C12.9 10 14 8.9 14 7.5C14 6.1 12.9 5 11.5 5C10.1 5 9 6.1 9 7.5ZM11 7.5C11 7.2 11.2 7 11.5 7C11.8 7 12 7.2 12 7.5C12 7.8 11.8 8 11.5 8C11.2 8 11 7.8 11 7.5Z" fill="#FFFFFF"/>
        </g>
    </g>
    <defs>
        <clipPath id="clip0">
            <rect width="28" height="15" fill="white"/>
        </clipPath>
    </defs>
</svg>
