<svg xmlns="http://www.w3.org/2000/svg" viewBox="0 0 24 24">
    <path d="M15.67 10.54a3.7 3.7 0 0 1-3.7 3.71h-.19a3.65 3.65 0 0 1-3.7-3.7V3.7A3.65 3.65 0 0 1 11.77 0h.19a3.65 3.65 0 0 1 3.7 3.7zM11.78 1.9a1.75 1.75 0 0 0-1.8 1.8v6.84a1.8 1.8 0 0 0 1.8 1.81h.19a1.8 1.8 0 0 0 1.8-1.8V3.7a1.8 1.8 0 0 0-1.8-1.81zm5.8 7.6a.95.95 0 0 1 1.9 0v2.85c0 3.32-2.95 5.98-6.66 6.46v3.04h2.38a.95.95 0 0 1 .95.95.9.9 0 0 1-.95.95H8.55a.95.95 0 0 1-.95-.95.9.9 0 0 1 .95-.95h2.37v-3.04c-3.7-.38-6.65-3.13-6.65-6.46V9.5a.9.9 0 0 1 .95-.95.9.9 0 0 1 .95.95v2.85c0 2.56 2.57 4.65 5.7 4.65s5.7-2.09 5.7-4.65z"/>
</svg>