<svg width="16" height="17" viewBox="0 0 16 17" fill="none" xmlns="http://www.w3.org/2000/svg">
    <g opacity="0.8">
        <mask id="path-1-inside-1" fill="white">
            <path fill-rule="evenodd" clip-rule="evenodd" d="M11.1558 8.30451C12.0805 7.42755 12.6572 6.18724 12.6572 4.81225C12.6572 2.15452 10.5027 0 7.84494 0C5.18721 0 3.03269 2.15452 3.03269 4.81225C3.03269 6.18724 3.60937 7.42755 4.53406 8.30451C2.1415 9.57122 0 11.9183 0 14.1355C0 17.0704 3.75224 17.0276 6.87219 16.992C7.20543 16.9882 7.53146 16.9845 7.84494 16.9845C8.15841 16.9845 8.48444 16.9882 8.81768 16.992C11.9376 17.0276 15.6899 17.0704 15.6899 14.1355C15.6899 11.9183 13.5484 9.57122 11.1558 8.30451Z"/>
        </mask>
        <path d="M11.1558 8.30451L9.77956 6.85333C9.31226 7.2965 9.08697 7.93758 9.17428 8.57566C9.2616 9.21373 9.65083 9.77072 10.22 10.0721L11.1558 8.30451ZM4.53406 8.30451L5.46987 10.0721C6.03904 9.77072 6.42828 9.21373 6.51559 8.57566C6.60291 7.93758 6.37761 7.2965 5.91032 6.85333L4.53406 8.30451ZM6.87219 16.992L6.84938 14.9921H6.84938L6.87219 16.992ZM8.81768 16.992L8.8405 14.9921H8.84049L8.81768 16.992ZM10.6572 4.81225C10.6572 5.61598 10.3226 6.33831 9.77956 6.85333L12.5321 9.75568C13.8384 8.5168 14.6572 6.75851 14.6572 4.81225H10.6572ZM7.84494 2C9.3981 2 10.6572 3.25909 10.6572 4.81225H14.6572C14.6572 1.04995 11.6072 -2 7.84494 -2V2ZM5.03269 4.81225C5.03269 3.25909 6.29178 2 7.84494 2V-2C4.08264 -2 1.03269 1.04995 1.03269 4.81225H5.03269ZM5.91032 6.85333C5.36726 6.33831 5.03269 5.61598 5.03269 4.81225H1.03269C1.03269 6.75851 1.85148 8.5168 3.1578 9.75568L5.91032 6.85333ZM2 14.1355C2 13.6555 2.24876 12.9496 2.91918 12.1283C3.57062 11.3302 4.48906 10.5913 5.46987 10.0721L3.59825 6.53695C2.1865 7.28438 0.837915 8.35241 -0.179544 9.59888C-1.17801 10.8221 -2 12.3983 -2 14.1355H2ZM6.84938 14.9921C5.20349 15.0109 3.7881 15.0118 2.77812 14.7443C2.29979 14.6176 2.11543 14.4781 2.06252 14.4242C2.04428 14.4056 2.03795 14.3945 2.03145 14.3778C2.0236 14.3575 2 14.2869 2 14.1355H-2C-2 15.3424 -1.594 16.409 -0.792447 17.2258C-0.0443095 17.9882 0.904383 18.386 1.75411 18.611C3.40024 19.047 5.42094 19.0087 6.89501 18.9918L6.84938 14.9921ZM7.84494 14.9845C7.51803 14.9845 7.18032 14.9883 6.84938 14.9921L6.89501 18.9918C7.23055 18.988 7.5449 18.9845 7.84494 18.9845V14.9845ZM8.84049 14.9921C8.50955 14.9883 8.17185 14.9845 7.84494 14.9845V18.9845C8.14497 18.9845 8.45933 18.988 8.79487 18.9918L8.84049 14.9921ZM13.6899 14.1355C13.6899 14.2869 13.6663 14.3575 13.6584 14.3778C13.6519 14.3945 13.6456 14.4056 13.6274 14.4242C13.5744 14.4781 13.3901 14.6176 12.9118 14.7443C11.9018 15.0118 10.4864 15.0109 8.8405 14.9921L8.79487 18.9918C10.2689 19.0087 12.2896 19.047 13.9358 18.611C14.7855 18.386 15.7342 17.9882 16.4823 17.2258C17.2839 16.409 17.6899 15.3424 17.6899 14.1355H13.6899ZM10.22 10.0721C11.2008 10.5913 12.1193 11.3302 12.7707 12.1283C13.4411 12.9496 13.6899 13.6555 13.6899 14.1355H17.6899C17.6899 12.3983 16.8679 10.8221 15.8694 9.59888C14.852 8.35241 13.5034 7.28438 12.0916 6.53695L10.22 10.0721Z" fill="white" mask="url(#path-1-inside-1)"/>
    </g>
</svg>
