<svg width="17" height="19" viewBox="0 0 17 19" fill="none" xmlns="http://www.w3.org/2000/svg">
    <g opacity="0.8">
        <circle cx="8.5" cy="12.5" r="1" fill="#C4C4C4" stroke="white"/>
        <rect x="1" y="8" width="15" height="10" rx="1" stroke="white" stroke-width="2"/>
        <mask id="path-3-inside-1" fill="white">
            <path fill-rule="evenodd" clip-rule="evenodd" d="M13 4.5V9.0001H4V4.5V3.6001H4.09C4.5069 1.54603 6.3229 0 8.5 0C10.6771 0 12.4931 1.54603 12.91 3.6001H13V4.5Z"/>
        </mask>
        <path d="M13 9.0001V11.0001C14.1046 11.0001 15 10.1047 15 9.0001H13ZM4 9.0001H2C2 10.1047 2.89543 11.0001 4 11.0001V9.0001ZM4 3.6001V1.6001C2.89543 1.6001 2 2.49553 2 3.6001H4ZM4.09 3.6001V5.6001C5.04122 5.6001 5.86082 4.93013 6.05003 3.99792L4.09 3.6001ZM12.91 3.6001L10.95 3.99792C11.1392 4.93013 11.9588 5.6001 12.91 5.6001V3.6001ZM13 3.6001H15C15 2.49553 14.1046 1.6001 13 1.6001V3.6001ZM11 4.5V9.0001H15V4.5H11ZM13 7.0001H4V11.0001H13V7.0001ZM6 9.0001V4.5H2V9.0001H6ZM6 4.5V3.6001H2V4.5H6ZM4 5.6001H4.09V1.6001H4V5.6001ZM6.05003 3.99792C6.28148 2.85761 7.29283 2 8.5 2V-2C5.35298 -2 2.73233 0.234453 2.12996 3.20228L6.05003 3.99792ZM8.5 2C9.70717 2 10.7185 2.85761 10.95 3.99792L14.87 3.20228C14.2677 0.234453 11.647 -2 8.5 -2V2ZM12.91 5.6001H13V1.6001H12.91V5.6001ZM11 3.6001V4.5H15V3.6001H11Z" fill="white" mask="url(#path-3-inside-1)"/>
    </g>
</svg>