<svg width="22" height="22" viewBox="0 0 22 22" fill="none" xmlns="http://www.w3.org/2000/svg">
    <circle cx="11" cy="11" r="11" fill="#FF3B6A"/>
    <path fill-rule="evenodd" clip-rule="evenodd" d="M14.313 15.5661C14.7076 15.9538 15.3473 15.9538 15.7419 15.5661C16.1365 15.1785 16.1365 14.5499 15.7419 14.1622L12.5268 11.0035L15.7417 7.84494C16.1363 7.45727 16.1363 6.82873 15.7417 6.44106C15.3471 6.05339 14.7074 6.05339 14.3128 6.44106L11.0979 9.59961L7.88279 6.4409C7.4882 6.05323 6.84845 6.05323 6.45386 6.4409C6.05927 6.82857 6.05927 7.45711 6.45386 7.84478L9.66893 11.0035L6.45366 14.1624C6.05907 14.5501 6.05907 15.1786 6.45366 15.5663C6.84824 15.954 7.488 15.954 7.88259 15.5663L11.0979 12.4074L14.313 15.5661Z" fill="white"/>
</svg>
