<svg xmlns="http://www.w3.org/2000/svg" viewBox="0 0 27 24">
    <path fill="#fff" d="M22 8v5.9a8 8 0 0 1-3 6.2v-1.9c0-2.8-2.5-5.1-5.5-5.1S8 15.3 8 18.1V20a8 8 0 0 1-3-6.2V8H3v5.9C3 19.4 7.7 24 13.5 24S24 19.4 24 13.9V8h-2zM10 21.3v-3.1c0-1.7 1.6-3.1 3.5-3.1s3.5 1.4 3.5 3.1v3.1c-1.1.5-2.3.7-3.5.7-1.2 0-2.4-.3-3.5-.7z"/>
    <path fill="#fff" d="M13.5 20a1.5 1.5 0 1 0 0-3 1.5 1.5 0 0 0 0 3zM26 8H1c-.6 0-1-.4-1-1V1c0-.6.4-1 1-1h25c.6 0 1 .4 1 1v6c0 .6-.4 1-1 1zM2 2v4h23V2H2z" opacity=".6"/>
</svg>