<svg width="26" height="23" viewBox="0 0 26 23" fill="none" xmlns="http://www.w3.org/2000/svg">
    <path d="M23.3683 13.7867C22.7683 13.2867 22.1683 12.8867 21.4683 12.4867C22.1683 11.6867 22.5683 10.5867 22.4683 9.48674C22.3683 7.78674 21.1683 6.28674 19.4683 5.78674L18.4683 5.58674C18.4683 5.58674 15.6683 -0.813256 12.9683 0.0867441C11.4683 0.686744 12.1683 3.98674 12.1683 3.98674C10.5683 3.48674 9.16835 3.28674 8.26835 3.78674C7.86835 3.98674 7.56835 4.38674 7.46835 4.78674C6.86835 6.78674 9.86835 9.28674 11.5683 9.98674L9.86835 10.7867L8.36835 11.4867C8.16835 11.5867 8.06835 11.6867 7.86835 11.7867C7.66835 11.2867 7.36835 10.8867 6.96835 10.4867C5.26835 8.68674 3.06835 8.48674 1.86835 9.68674C0.668347 10.8867 0.968347 13.0867 2.46835 14.5867C2.76835 14.8867 2.96835 15.0867 3.26835 15.2867C0.168347 18.6867 -0.631653 20.5867 0.468347 21.5867C1.06835 22.0867 1.76835 22.3867 2.56835 22.3867C3.46835 22.3867 4.26835 21.9867 4.96835 21.2867C5.46835 20.6867 6.26835 19.8867 7.36835 18.9867L7.56835 19.0867H7.76835C7.86835 19.0867 8.16835 19.0867 8.66835 19.0867C10.4683 19.0867 14.5683 18.8867 17.1683 17.1867C17.4683 16.9867 17.7683 16.7867 17.9683 16.5867C18.4683 16.8867 19.0683 17.1867 19.5683 17.5867C20.5683 18.3867 23.6683 19.6867 24.8683 18.0867C25.7683 16.8867 25.1683 15.1867 23.3683 13.7867ZM20.7683 16.0867C20.1683 15.5867 19.5683 15.2867 18.9683 14.9867C18.6683 14.8867 18.3683 14.6867 18.0683 14.5867C17.8683 14.4867 17.7683 14.4867 17.5683 14.5867L16.5683 15.0867C16.3683 15.2867 16.0683 15.4867 15.8683 15.6867C15.6683 15.7867 15.5683 15.8867 15.3683 15.9867C14.5683 16.3867 13.6683 16.6867 12.7683 16.7867C11.8683 16.9867 10.8683 17.0867 10.0683 17.0867C8.96835 17.1867 8.16835 17.0867 7.86835 17.0867L7.46835 16.9867C7.46835 16.9867 5.76835 17.7867 5.16835 18.3867C4.56835 18.8867 4.06835 19.4867 3.46835 20.0867C3.16835 20.4867 2.56835 20.5867 2.16835 20.2867C2.26835 19.8867 2.76835 19.1867 3.76835 17.8867L4.06835 17.5867C4.26835 17.2867 4.56835 16.9867 4.86835 16.6867C5.06835 16.3867 5.26835 16.1867 5.46835 15.9867C5.76835 15.6867 5.36835 13.9867 5.26835 13.9867C5.16835 13.9867 4.96835 13.8867 4.76835 13.8867C4.46835 13.7867 4.16835 13.5867 3.86835 13.2867C3.06835 12.4867 2.86835 11.5867 3.26835 11.1867C3.36835 11.0867 3.56835 10.9867 3.76835 10.9867C4.26835 10.9867 4.86835 11.2867 5.36835 11.7867C5.66835 12.0867 5.86835 12.4867 6.06835 12.7867C6.16835 12.9867 6.26835 13.1867 6.46835 13.4867C6.66835 13.8867 7.76835 13.9867 8.16835 13.7867C8.46835 13.5867 8.76835 13.3867 9.06835 13.1867L9.26835 13.0867C9.56835 12.8867 9.86835 12.7867 10.1683 12.6867L13.8683 10.9867C14.1683 10.8867 14.3683 10.4867 14.4683 10.1867C14.4683 10.0867 14.4683 10.0867 14.4683 9.98674C14.4683 9.68674 14.2683 9.48674 14.0683 9.28674L12.5683 8.18674C12.4683 8.08674 9.16835 6.38674 9.36835 5.38674C10.1683 4.38674 13.8683 6.38674 13.8683 6.38674C14.1683 6.48674 14.4683 6.18674 14.4683 5.88674C14.4683 5.88674 12.9683 2.38674 14.1683 2.38674C15.1683 2.38674 17.5683 7.18674 17.5683 7.18674L17.7683 7.38674L19.0683 7.68674C19.8683 7.98674 20.4683 8.68674 20.5683 9.58674C20.6683 10.2867 20.2683 10.9867 19.6683 11.3867C19.5683 11.4867 19.4683 11.5867 19.3683 11.5867L18.4683 11.9867C18.4683 11.9867 17.1683 12.3867 19.0683 13.3867C19.2683 13.4867 19.3683 13.5867 19.5683 13.6867C20.3683 14.1867 21.1683 14.6867 22.0683 15.3867C22.9683 16.0867 23.2683 16.6867 23.2683 16.8867C22.9683 17.0867 21.4683 16.6867 20.7683 16.0867Z" fill="#FFFFFF"/>
    <circle opacity="0.6" cx="17.0684" cy="8.98682" r="1" fill="#FFFFFF"/>
</svg>
