<svg xmlns="http://www.w3.org/2000/svg" viewBox="0 0 24 24">
    <path d="M2.1 23.92c-.49 0-.95-.2-1.28-.52a1.84 1.84 0 0 1-.47-1.67l.19-.87 1-4.69c.08-.4.3-.8.6-1.11l2.28-2.3 3.8-3.8c2.45-2.46 4.9-4.9 7.32-7.35a2.1 2.1 0 0 1 1.8-.66h.1c.37.05.8.11 1.22.28A7.6 7.6 0 0 1 22.9 5.4c.14.34.22.67.28.97v.03l.05.17.03.15c.03.13.04.27.03.4a2.4 2.4 0 0 1-.7 1.52L9.2 22.07c-.34.33-.73.54-1.2.65l-3.16.66-2.34.5c-.15.02-.27.04-.4.04zm1.86-7.16l-.82 3.87-.12.56 4.43-.94 3.1-3.11 6.48-6.48-3.5-3.5-6.78 6.8-2.79 2.8zm14.92-7.95l1.88-1.88v-.04l-.14-.5a5.2 5.2 0 0 0-2.89-2.84 2.02 2.02 0 0 0-.5-.1L15.8 4.87l-.43.43 3.5 3.5z"/>
</svg>