<svg xmlns="http://www.w3.org/2000/svg" viewBox="0 0 24 24">
    <path d="M1.2 5.9h12.3c.7 0 1.3-.5 1.3-1.2s-.6-1.3-1.3-1.3H1.2C.6 3.4 0 4 0 4.7c0 .7.6 1.2 1.2 1.2zm0 5h9.9c.6 0 1.2-.6 1.2-1.3 0-.7-.6-1.2-1.2-1.2H1.2C.6 8.4 0 8.9 0 9.6s.6 1.2 1.2 1.2zm7.4 4.8H1.2c-.6 0-1.2-.5-1.2-1.2s.6-1.2 1.2-1.2h7.4c.7 0 1.3.5 1.3 1.2s-.6 1.2-1.3 1.2zm-7.4 5H5c.7 0 1.3-.6 1.3-1.3 0-.6-.6-1.2-1.3-1.2H1.2c-.6 0-1.2.6-1.2 1.2 0 .7.6 1.3 1.2 1.3zM18.5 3.4c-.6 0-1.2.6-1.2 1.3v12l-1.8-2a1.2 1.2 0 1 0-1.6 1.6l4 4c.3.3.8.4 1.2.3l.6-.3 3.7-3.8c.5-.5.5-1.3 0-1.7-.5-.6-1.2-.6-1.7 0l-2 1.8v-12c0-.6-.5-1.2-1.2-1.2z"/>
</svg>
