<svg xmlns="http://www.w3.org/2000/svg" viewBox="0 0 24 24">
    <path d="M21.15.63a1.6 1.6 0 1 1 2.27 2.26l-4.33 4.33h2.53a1.6 1.6 0 1 1 0 3.2h-6.4a1.6 1.6 0 0 1-1.6-1.6v-6.4a1.6 1.6 0 1 1 3.2 0v2.54L21.15.63zm-18.73 9.8a1.6 1.6 0 0 1 0-3.2h2.54L.63 2.88A1.6 1.6 0 1 1 2.89.63l4.33 4.33V2.42a1.6 1.6 0 1 1 3.2 0v6.4c0 .89-.71 1.6-1.6 1.6h-6.4zm6.4 12.8c.89 0 1.6-.72 1.6-1.6v-6.4c0-.9-.71-1.6-1.6-1.6h-6.4a1.6 1.6 0 1 0 0 3.2h2.54L.63 21.14a1.6 1.6 0 1 0 2.26 2.27l4.33-4.33v2.53c0 .89.72 1.6 1.6 1.6zm12.8-9.6a1.6 1.6 0 1 1 0 3.2H19.1l4.33 4.32a1.6 1.6 0 0 1-2.27 2.27l-4.33-4.33v2.53a1.6 1.6 0 0 1-3.2 0v-6.4c0-.88.72-1.6 1.6-1.6h6.4z"/>
</svg>