<svg xmlns="http://www.w3.org/2000/svg" viewBox="0 0 24 24">
    <path d="M12.08 12.69a4.4 4.4 0 0 0-.73 2.44v5.85l-1.96.5V15c0-.86-.24-1.71-.73-2.44L3.17 6.22h10a4.9 4.9 0 0 1-.36-1.83c0-.24 0-.36.12-.6H3.17c-.85 0-1.7.48-2.2 1.21-.48.73-.36 1.71.13 2.44l5.37 6.35c0 .12.12.12.12.24.12.24.36.61.36.98v6.46c0 .73.37 1.47.98 1.95.49.37.98.5 1.46.5.25 0 .5 0 .61-.13l1.96-.49a2.35 2.35 0 0 0 1.83-2.32v-5.85c0-.49.12-.73.36-.98 0-.12.12-.12.12-.24l3.05-3.66a6.2 6.2 0 0 1-2.2-1.1l-3.04 3.54zM22.94.49a1.18 1.18 0 0 0-1.71 0l-1.71 1.7-1.7-1.7a1.18 1.18 0 0 0-1.72 0 1.18 1.18 0 0 0 0 1.7l1.71 1.71-1.7 1.71a1.18 1.18 0 0 0 0 1.71c.48.49 1.21.49 1.7 0l1.71-1.7 1.7 1.82c.5.49 1.23.49 1.72 0 .48-.49.48-1.22 0-1.7l-1.71-1.71 1.7-1.71c.5-.61.5-1.34 0-1.83z"/>
</svg>
