<svg width="22" height="22" viewBox="0 0 22 22" fill="none" xmlns="http://www.w3.org/2000/svg">
    <g opacity="0.6">
        <path opacity="0.6" d="M12 1C12 0.447715 11.5523 0 11 0C10.4477 0 10 0.447715 10 1V10H1C0.447715 10 0 10.4477 0 11C0 11.5523 0.447715 12 1 12H10V21C10 21.5523 10.4477 22 11 22C11.5523 22 12 21.5523 12 21V12H21C21.5523 12 22 11.5523 22 11C22 10.4477 21.5523 10 21 10H12V1Z" fill="#FFFFFF"/>
    </g>
    <path d="M14.3853 3.92589C12.2832 2.7581 9.71599 2.7581 7.61397 3.92589C7.13118 4.1941 6.95724 4.80291 7.22545 5.28569C7.49367 5.76848 8.10247 5.94242 8.58525 5.67421C10.0832 4.842 11.916 4.842 13.414 5.67421C13.8967 5.94242 14.5056 5.76848 14.7738 5.28569C15.042 4.80291 14.868 4.1941 14.3853 3.92589Z" fill="#FFFFFF"/>
    <path d="M8.58525 16.4259C8.10247 16.1577 7.49367 16.3316 7.22545 16.8144C6.95724 17.2972 7.13118 17.906 7.61397 18.1742C9.71599 19.342 12.2832 19.342 14.3853 18.1742C14.868 17.906 15.042 17.2972 14.7738 16.8144C14.5056 16.3316 13.8967 16.1577 13.414 16.4259C11.916 17.2581 10.0832 17.2581 8.58525 16.4259Z" fill="#FFFFFF"/>
    <path d="M16.7146 7.22594C17.1973 6.95773 17.8061 7.13167 18.0744 7.61445C19.2421 9.71648 19.2421 12.2837 18.0744 14.3857C17.8061 14.8685 17.1973 15.0425 16.7146 14.7743C16.2318 14.506 16.0578 13.8972 16.326 13.4145C17.1582 11.9165 17.1582 10.0837 16.326 8.58574C16.0578 8.10296 16.2318 7.49415 16.7146 7.22594Z" fill="#FFFFFF"/>
    <path d="M5.57435 8.58574C5.84257 8.10296 5.66862 7.49415 5.18584 7.22594C4.70305 6.95773 4.09425 7.13167 3.82604 7.61445C2.65825 9.71648 2.65825 12.2837 3.82604 14.3857C4.09425 14.8685 4.70305 15.0425 5.18584 14.7743C5.66862 14.506 5.84257 13.8972 5.57435 13.4145C4.74214 11.9165 4.74214 10.0837 5.57435 8.58574Z" fill="#FFFFFF"/>
    <path d="M14.3853 3.92589C12.2832 2.7581 9.71599 2.7581 7.61397 3.92589C7.13118 4.1941 6.95724 4.80291 7.22545 5.28569C7.49367 5.76848 8.10247 5.94242 8.58525 5.67421C10.0832 4.842 11.916 4.842 13.414 5.67421C13.8967 5.94242 14.5056 5.76848 14.7738 5.28569C15.042 4.80291 14.868 4.1941 14.3853 3.92589Z" stroke="#FFFFFF"/>
    <path d="M8.58525 16.4259C8.10247 16.1577 7.49367 16.3316 7.22545 16.8144C6.95724 17.2972 7.13118 17.906 7.61397 18.1742C9.71599 19.342 12.2832 19.342 14.3853 18.1742C14.868 17.906 15.042 17.2972 14.7738 16.8144C14.5056 16.3316 13.8967 16.1577 13.414 16.4259C11.916 17.2581 10.0832 17.2581 8.58525 16.4259Z" stroke="#FFFFFF"/>
    <path d="M16.7146 7.22594C17.1973 6.95773 17.8061 7.13167 18.0744 7.61445C19.2421 9.71648 19.2421 12.2837 18.0744 14.3857C17.8061 14.8685 17.1973 15.0425 16.7146 14.7743C16.2318 14.506 16.0578 13.8972 16.326 13.4145C17.1582 11.9165 17.1582 10.0837 16.326 8.58574C16.0578 8.10296 16.2318 7.49415 16.7146 7.22594Z" stroke="#FFFFFF"/>
    <path d="M5.57435 8.58574C5.84257 8.10296 5.66862 7.49415 5.18584 7.22594C4.70305 6.95773 4.09425 7.13167 3.82604 7.61445C2.65825 9.71648 2.65825 12.2837 3.82604 14.3857C4.09425 14.8685 4.70305 15.0425 5.18584 14.7743C5.66862 14.506 5.84257 13.8972 5.57435 13.4145C4.74214 11.9165 4.74214 10.0837 5.57435 8.58574Z" stroke="#FFFFFF"/>
</svg>
