<svg width="22" height="22" viewBox="0 0 22 22" fill="none" xmlns="http://www.w3.org/2000/svg">
    <path fill-rule="evenodd" clip-rule="evenodd" d="M11 4C7.13401 4 4 7.13401 4 11C4 14.866 7.13401 18 11 18C14.866 18 18 14.866 18 11C18 7.13401 14.866 4 11 4ZM2 11C2 6.02944 6.02944 2 11 2C15.9706 2 20 6.02944 20 11C20 15.9706 15.9706 20 11 20C6.02944 20 2 15.9706 2 11Z" fill="#46495D"/>
    <g opacity="0.6">
        <path d="M11 0C11.5523 0 12 0.447715 12 1V6C12 6.55228 11.5523 7 11 7C10.4477 7 10 6.55228 10 6V1C10 0.447715 10.4477 0 11 0Z" fill="#46495D"/>
        <path d="M1 10C0.447715 10 0 10.4477 0 11C0 11.5523 0.447715 12 1 12H6C6.55228 12 7 11.5523 7 11C7 10.4477 6.55228 10 6 10H1Z" fill="#46495D"/>
        <path d="M16 10C15.4477 10 15 10.4477 15 11C15 11.5523 15.4477 12 16 12H21C21.5523 12 22 11.5523 22 11C22 10.4477 21.5523 10 21 10H16Z" fill="#46495D"/>
        <path d="M12 16C12 15.4477 11.5523 15 11 15C10.4477 15 10 15.4477 10 16V21C10 21.5523 10.4477 22 11 22C11.5523 22 12 21.5523 12 21V16Z" fill="#46495D"/>
        <path d="M11 0C11.5523 0 12 0.447715 12 1V6C12 6.55228 11.5523 7 11 7C10.4477 7 10 6.55228 10 6V1C10 0.447715 10.4477 0 11 0Z" stroke="#46495D"/>
        <path d="M1 10C0.447715 10 0 10.4477 0 11C0 11.5523 0.447715 12 1 12H6C6.55228 12 7 11.5523 7 11C7 10.4477 6.55228 10 6 10H1Z" stroke="#46495D"/>
        <path d="M16 10C15.4477 10 15 10.4477 15 11C15 11.5523 15.4477 12 16 12H21C21.5523 12 22 11.5523 22 11C22 10.4477 21.5523 10 21 10H16Z" stroke="#46495D"/>
        <path d="M12 16C12 15.4477 11.5523 15 11 15C10.4477 15 10 15.4477 10 16V21C10 21.5523 10.4477 22 11 22C11.5523 22 12 21.5523 12 21V16Z" stroke="#46495D"/>
    </g>
</svg>
