<svg width="18" height="18" viewBox="0 0 18 18" fill="none" xmlns="http://www.w3.org/2000/svg">
    <path fill-rule="evenodd" clip-rule="evenodd" d="M9 2C5.13401 2 2 5.13401 2 9C2 12.866 5.13401 16 9 16C12.866 16 16 12.866 16 9C16 5.13401 12.866 2 9 2ZM0 9C0 4.02944 4.02944 0 9 0C13.9706 0 18 4.02944 18 9C18 13.9706 13.9706 18 9 18C4.02944 18 0 13.9706 0 9Z" fill="#46495D"/>
    <path opacity="0.6" fill-rule="evenodd" clip-rule="evenodd" d="M11.8372 9.99997L14.1524 2.80633L12.2486 2.1936L10.7473 6.85841L4.48997 2.29227L3.31103 3.90786L7.28626 6.8087L1.11279 11.2908L2.28782 12.9092L6.17116 10.0898L8.55051 17.3128L10.4501 16.6871L8.90611 12H16.0001V9.99997H11.8372ZM9.73619 9.99997L10.102 8.86341L8.98402 8.0476L7.87047 8.85607L8.24728 9.99997H9.73619Z" fill="#46495D"/>
</svg>
