<svg xmlns="http://www.w3.org/2000/svg" viewBox="0 0 48 24">
    <path d="M9.38 14.55l9.4 3.88c.19.1.38.1.57.1.29 0 .58 0 .87-.2.38-.2.76-.6.95-1l.1-.1.2-.2 2.87 1.8c.19.1.28.1.48.1.1 0 .19 0 .28-.1.3-.1.48-.3.58-.6l2.01-5.17c.1-.3.1-.5 0-.8-.1-.3-.29-.4-.57-.5l-3.36-1.1.39-1.09c.38-1-.1-2.09-.96-2.39L9.09 1.41c-.38-.2-.86-.2-1.34 0-.38.2-.76.6-.95 1.1l-2.88 7.76c-.38 1 .1 2.09.96 2.39l2.78 1.2 1.72.69zm-3.64-3.68L8.62 3.3l13.7 5.68-2.87 7.56-13.7-5.67zm18.5 5.57l-2.2-1.4.86-2.48 2.5.8-1.16 3.08zm22.77-7.6c-.57 0-.95.37-.95.94v2.84c0 2.56-2.55 4.64-5.68 4.64-3.12 0-5.68-2.08-5.68-4.64V9.78c0-.57-.37-.95-.94-.95s-.95.38-.95.95v2.84c0 3.31 2.94 6.06 6.63 6.44v3.03h-2.37c-.57 0-.95.37-.95.94s.48.95.95.95h6.63c.56 0 .94-.38.94-.95a.95.95 0 0 0-.94-.94h-2.37v-3.03c3.7-.48 6.63-3.13 6.63-6.44V9.78c0-.57-.38-.95-.95-.95zm-6.72 6.3h.19c1.99 0 3.69-1.57 3.69-3.6V4.86a3.6 3.6 0 0 0-3.7-3.6h-.18a3.6 3.6 0 0 0-3.7 3.6v6.66a3.6 3.6 0 0 0 3.7 3.61zm-1.8-10.27c0-.92.76-1.76 1.8-1.76h.19c.95 0 1.8.74 1.8 1.76v6.66c0 .93-.76 1.76-1.8 1.76h-.2c-.94 0-1.79-.74-1.79-1.76V4.87zM8.26 13.88l-2.75 3.74-3.47.54v-1.82c0-.55-.4-.91-1.02-.91-.61 0-1.02.36-1.02.91v5.47c0 .54.4.9 1.02.9.61 0 1.02-.36 1.02-.9v-1.74l4.28-.72c.3-.1.51-.19.61-.37l3.06-4.1c.1-.09.1-.18.1-.27l-1.83-.73z"/>
</svg>