<svg xmlns="http://www.w3.org/2000/svg" viewBox="0 0 36 24">
    <g fill="#fff">
        <path d="M20.9 13l2-5.8c.1-.5-.1-1.1-.7-1.2-.5-.2-1.1.1-1.3.6l-2 5.8-1-.1a6.1 6.1 0 0 0-6.2 6.1h2c0-2.3 1.9-4.1 4.2-4.1 2.3 0 4.2 1.8 4.2 4.1h2a5.8 5.8 0 0 0-3.2-5.4z" opacity=".6"/>
        <path d="M18 0C8.1 0 0 8.3 0 18.5c0 .6.4 1 1 1h34c.6 0 1-.4 1-1C36 8.3 27.9 0 18 0zM2 17.5c.1-1 .2-2.1.5-3l1.5.4h.3c.4 0 .8-.3 1-.7a.9.9 0 0 0-.7-1.2l-1.5-.4c.8-2.2 2.1-4.2 3.8-5.9l1.4 1.1.6.2c.3 0 .6-.1.8-.4a1 1 0 0 0-.2-1.4l-1.1-.9C10.8 3.4 13.8 2.2 17 2v1.9c0 .6.4 1 1 1s1-.4 1-1V2c3.1.2 6 1.3 8.4 3.1l-1.1 1.4c-.3.5-.3 1.1.2 1.5l.6.2c.3 0 .6-.1.8-.4L29 6.5c1.8 1.7 3.1 3.8 4 6.2l-1.4.3c-.5.1-.9.7-.7 1.2.1.5.5.8 1 .8h.2l1.5-.4c.2.9.4 1.9.4 2.9H2z"/>
    </g>
</svg>