<svg xmlns="http://www.w3.org/2000/svg" viewBox="0 0 24 24">
<path d="M2.5 5.13c0-.7.56-1.25 1.25-1.25H20a1.25 1.25 0 1 1 0 2.5H3.75c-.69 0-1.25-.56-1.25-1.25zm17.5 0H3.75v16.25a2.5 2.5 0 0 0 2.5 2.5H17.5a2.5 2.5 0 0 0 2.5-2.5V5.13zm-2.7 1.25H6.45v15h10.83v-15zm-8.55 3.75a1.25 1.25 0 0 1 2.5 0v7.5a1.25 1.25 0 1 1-2.5 0v-7.5zm3.75 0a1.25 1.25 0 0 1 2.5 0v7.5a1.25 1.25 0 1 1-2.5 0v-7.5zM8.75.13C8.06.13 7.5.68 7.5 1.38v2.5c0 .69.56 1.25 1.25 1.25H15c.69 0 1.25-.56 1.25-1.25v-2.5c0-.7-.56-1.25-1.25-1.25H8.75zm5 2.5H10v1.25h3.75V2.63z"/>
</svg>