<svg xmlns="http://www.w3.org/2000/svg" viewBox="0 0 24 24">
    <path d="M19.55 0H4.25a.8.8 0 0 0-.85.85V5.1a.8.8 0 0 0 .85.85h.85v3.82a6.58 6.58 0 0 0 6.8 6.38 6.63 6.63 0 0 0 6.8-6.38V5.95h.85a.8.8 0 0 0 .85-.85V.85a.8.8 0 0 0-.85-.85zM10.2 14.2v-2.73c0-.68.76-1.27 1.7-1.27s1.7.6 1.7 1.27v2.72a5.48 5.48 0 0 1-1.7.26 5.48 5.48 0 0 1-1.7-.25zM17 9.76a4.6 4.6 0 0 1-1.7 3.49v-1.79a3.23 3.23 0 0 0-3.4-2.97 3.23 3.23 0 0 0-3.4 2.97v1.79a4.6 4.6 0 0 1-1.7-3.49V5.95H17zm1.7-5.52H5.1V1.7h13.6zM5.6 18.91a4.83 4.83 0 0 1 1.57-.21 1.86 1.86 0 0 1 1.23.33 1.23 1.23 0 0 1 .39 1.02 1.17 1.17 0 0 1-.13.55 1.51 1.51 0 0 1-.23.37l-.3.23a1.6 1.6 0 0 1 .57.42 1.16 1.16 0 0 1 .2.73 1.58 1.58 0 0 1-.4 1.15 1.78 1.78 0 0 1-1.28.39 5.1 5.1 0 0 1-.76-.06 5.18 5.18 0 0 1-.65-.12l-.24-.06.05-.66a8.5 8.5 0 0 0 1.49.16q.91 0 .91-.85a.67.67 0 0 0-.23-.57 1.06 1.06 0 0 0-.63-.2H6.13v-.7h1.01a.8.8 0 0 0 .76-.8.58.58 0 0 0-.2-.48.94.94 0 0 0-.58-.16 7.93 7.93 0 0 0-1.25.16h-.2zm7.53.64a10.2 10.2 0 0 0-1.35-.11 1.09 1.09 0 0 0-.9.37 1.74 1.74 0 0 0-.3 1.06l.17-.06a3.08 3.08 0 0 1 .93-.18q1.7 0 1.7 1.6a1.56 1.56 0 0 1-.48 1.26 1.96 1.96 0 0 1-1.37.43 1.57 1.57 0 0 1-1.33-.7 3.48 3.48 0 0 1-.5-1.97c0-1.7.68-2.55 2.05-2.55a6.08 6.08 0 0 1 1.24.14l.22.05zm-2.42 1.96l-.14.05c0 1.06.34 1.59 1 1.59a.85.85 0 0 0 .94-.93.85.85 0 0 0-.24-.66.96.96 0 0 0-.66-.22 2.75 2.75 0 0 0-.9.17zm3.65-2.22a1.7 1.7 0 0 1 1.44-.59 1.7 1.7 0 0 1 1.44.61 3.4 3.4 0 0 1 .47 2.03 3.26 3.26 0 0 1-.48 2 1.78 1.78 0 0 1-1.44.58 1.77 1.77 0 0 1-1.43-.58 3.22 3.22 0 0 1-.47-1.99 3.4 3.4 0 0 1 .47-2.06zm2.23.54a.94.94 0 0 0-1.58 0 3.13 3.13 0 0 0-.24 1.46 2.97 2.97 0 0 0 .25 1.46.85.85 0 0 0 .78.4.85.85 0 0 0 .78-.4 3.07 3.07 0 0 0 .25-1.46 3.13 3.13 0 0 0-.24-1.46zm2.96-1.13a.85.85 0 1 1-.85-.85.85.85 0 0 1 .85.85z"/>
</svg>
