<svg xmlns="http://www.w3.org/2000/svg" viewBox="0 0 24 24">
    <path d="M19.47 9.36c-.36 0-.66.3-.66.66v2.37c0 3.24-3.04 5.88-6.76 5.88-3.73 0-6.77-2.64-6.77-5.88v-2.37c0-.37-.3-.66-.66-.66-.36 0-.66.3-.66.66v2.37c0 3.8 3.37 6.93 7.59 7.16v3H8.91c-.36 0-.66.3-.66.67 0 .36.3.66.66.66h6.6c.36 0 .66-.3.66-.66 0-.37-.3-.66-.66-.66h-2.64v-3.04c4.06-.36 7.26-3.43 7.26-7.13v-2.37c0-.37-.3-.66-.66-.66zm-7.92 6.6h.99A3.97 3.97 0 0016.5 12V4.08A3.97 3.97 0 0012.54.12h-.99a3.97 3.97 0 00-3.96 3.96V12a3.97 3.97 0 003.96 3.96zm0-14.52h.99a2.65 2.65 0 012.64 2.64V12a2.65 2.65 0 01-2.64 2.64h-.99A2.65 2.65 0 018.91 12v-.66h1.32c.36 0 .66-.3.66-.66 0-.37-.3-.66-.66-.66H8.91v-1h2.31c.36 0 .66-.3.66-.65 0-.37-.3-.66-.66-.66H8.91v-1h1.32c.36 0 .66-.3.66-.65 0-.37-.3-.66-.66-.66H8.91V4.08a2.65 2.65 0 012.64-2.64z"/>
</svg>