<svg xmlns="http://www.w3.org/2000/svg" viewBox="0 0 24 24">
    <path d="M17.8 7.2H23c.5 0 1-.5 1-1V1c0-.5-.5-1-1-1h-5.2a1 1 0 0 0-1 1v1.4h-2.4c-2 0-3.6 1.6-3.6 3.6v4.8H7.2V9.4c0-.5-.5-1-1-1H1a1 1 0 0 0-1 1v5.2c0 .5.5 1 1 1h5.2c.5 0 1-.5 1-1v-1.4h3.6V18c0 2 1.6 3.6 3.6 3.6h2.4V23c0 .5.5 1 1 1H23c.5 0 1-.5 1-1v-5.2c0-.5-.4-1-1-1h-5.2a1 1 0 0 0-1 1v1.4h-2.4c-.7 0-1.2-.5-1.2-1.2v-4.8h3.6v1.4c0 .5.5 1 1 1H23c.5 0 1-.5 1-1V9.4c0-.5-.5-1-1-1h-5.2a1 1 0 0 0-1 1v1.4h-3.6V6c0-.7.5-1.2 1.2-1.2h2.4v1.4c0 .5.5 1 1 1zm1.4-4.8h2.4v2.4h-2.4V2.4zM4.8 13.2H2.4v-2.4h2.4v2.4zm14.4 6h2.4v2.4h-2.4v-2.4zm0-8.4h2.4v2.4h-2.4v-2.4z"/>
</svg>
