<svg xmlns="http://www.w3.org/2000/svg" viewBox="0 0 24 24">
    <path d="M24 3.6V1.2c0-.7-.5-1.2-1.2-1.2h-2.4c-.7 0-1.2.5-1.2 1.2H4.8C4.8.5 4.3 0 3.6 0H1.2C.5 0 0 .5 0 1.2v2.4c0 .7.5 1.2 1.2 1.2v14.4c-.7 0-1.2.5-1.2 1.2v2.4c0 .7.5 1.2 1.2 1.2h2.4c.7 0 1.2-.5 1.2-1.2h14.4c0 .7.5 1.2 1.2 1.2h2.4c.7 0 1.2-.5 1.2-1.2v-2.4c0-.7-.5-1.2-1.2-1.2V4.8c.7 0 1.2-.5 1.2-1.2zm-3.6 15.6c-.7 0-1.2.5-1.2 1.2H4.8c0-.7-.5-1.2-1.2-1.2V4.8c.7 0 1.2-.5 1.2-1.2h14.4c0 .7.5 1.2 1.2 1.2v14.4zm-3.6-9.6h-1.2v6h-6v1.2c0 .7.5 1.2 1.2 1.2h6c.7 0 1.2-.5 1.2-1.2v-6c0-.7-.5-1.2-1.2-1.2zM13.2 6h-6C6.5 6 6 6.5 6 7.2v6c0 .7.5 1.2 1.2 1.2h6c.7 0 1.2-.5 1.2-1.2v-6c0-.7-.5-1.2-1.2-1.2zM12 12H8.4V8.4H12V12z"/>
</svg>