<svg xmlns="http://www.w3.org/2000/svg" viewBox="0 0 24 24">
    <path d="M10.08 18.9a1.26 1.26 0 0 0 1.26-1.26v-7.56a1.26 1.26 0 0 0-2.52 0v7.56a1.26 1.26 0 0 0 1.26 1.26zm3.78 0a1.26 1.26 0 0 0 1.26-1.26v-7.56a1.26 1.26 0 0 0-2.52 0v7.56a1.26 1.26 0 0 0 1.26 1.26zm6.3-15.12h-3.78V1.26A1.26 1.26 0 0 0 15.12 0h-6.3a1.26 1.26 0 0 0-1.26 1.26v2.52H3.78a1.26 1.26 0 0 0 0 2.52v15.12a2.52 2.52 0 0 0 2.52 2.52h11.34a2.52 2.52 0 0 0 2.52-2.52V6.3a1.26 1.26 0 0 0 0-2.52zM10.08 2.52h3.78v1.26h-3.78zm7.56 18.9H6.3V6.3h11.34z"/>
</svg>